<svg width="33" height="33" viewBox="0 0 33 33" fill="none" xmlns="http://www.w3.org/2000/svg">
<g clip-path="url(#clip0_44_7594)">
<path d="M24.1237 25.7885C21.3667 27.3763 18.0924 27.8056 15.0193 26.9822C11.9461 26.1587 9.32515 24.1498 7.7314 21.3962C3.1209 13.7166 8.926 3.40334 17.8934 3.41526L19.6693 3.38527L18.773 4.91888C14.8147 11.4628 20.33 20.0356 27.9188 19.1599L29.6882 18.9825L28.9207 20.5872C27.885 22.7665 26.2123 24.5802 24.1237 25.7885ZM13.1237 6.73598C10.8291 8.06414 9.15504 10.2483 8.46884 12.8092C7.78264 15.3702 8.14034 18.0987 9.46345 20.3962C12.8877 26.6372 22.2864 27.0802 26.263 21.184C24.4649 21.0625 22.7202 20.5216 21.1686 19.6048C19.6171 18.688 18.3017 17.4206 17.3278 15.9041C16.354 14.3877 15.7487 12.6643 15.5605 10.8719C15.3723 9.07954 15.6063 7.268 16.2439 5.58232C15.1454 5.7852 14.09 6.17543 13.1237 6.73598Z" fill="#F8FAFF"/>
</g>
<defs>
<clipPath id="clip0_44_7594">
<rect width="24" height="24" fill="white" transform="translate(0 12) rotate(-30)"/>
</clipPath>
</defs>
</svg>
